{"title":"Epic (2013) 1080p BluRay {Dual Audio} {6Ch.} [Hindi DD 5.1 Origi","uid":9700384,"size":2388253093,"categoryP":"video","categoryS":"hd___movies","magnet":"?xt=urn:btih:9026b1d84d6d2f7a3c72a375d40cf482c4e48064&amp;dn=Epic+%282013%29+1080p+BluRay+%7BDual+Audio%7D+%7B6Ch.%7D+%5BHindi+DD+5.1+Origi&amp;tr=udp%3A%2F%2Ftracker.openbittorrent.com%3A80&amp;tr=udp%3A%2F%2Fopen.demonii.com%3A1337&amp;tr=udp%3A%2F%2Ftracker.coppersurfer.tk%3A6969&amp;tr=udp%3A%2F%2Fexodus.desync.com%3A6969","seeders":4,"leechers":0,"uploader":"SaNRiM","files":-1,"time":1393991167,"description":"Storyline\nYoung Mary Katherine (M.K.) returns to her eccentric scientist father's home, but his all-consuming quest to discover a tiny civilization in the neighboring forest drives them apart. However, M.K. soon finds herself shrunken down by Queen Tara of that forest who was mortally wounded by the putrefying Boggans, and charged to deliver a pod bearing the new Queen to safety. Together with a veteran Leafman warrior, two goofy mollusks and a young maverick, M.K. agrees to help. As the villainous Boggan leader, Mandrake closes in, M.K. and her new friends must draw on the best of themselves together and discover what they have to save their world.\n\n\n\nTorrent Info\n\nGeneral\n\nUnique ID : 208519883829070141316725806915669157100 (0x9CDF7805061068CEAF058CBFA38B64EC)\nComplete name : Epic (2013) 1080p BluRay {Dual Audio} {6Ch.} [Hindi DD 5.1 Original-English DD 5.1] ~SaNRiM~.mkv\nFormat : Matroska\nFormat version : Version 4 / Version 2\nFile size : 2.21 GiB\nDuration : 1h 42mn\nOverall bit rate : 3 090 Kbps\nEncoded date : UTC 2014-03-04 19:21:31\nWriting library : libebml v1.3.0 + libmatroska v1.4.1\n\n\nVideo\n\nID : 1\nFormat : AVC\nFormat/Info : Advanced Video Codec\nFormat profile : &lt;a class=&quot;__cf_email__&quot; href=&quot;/cdn-cgi/l/email-protection&quot; data-cfemail=&quot;6d25040a052d2159435c&quot;&gt;[email&amp;#160;protected]&lt;/a&gt;&lt;script cf-hash='f9e31' type=&quot;text/javascript&quot;&gt;\n/* &lt;![CDATA[ */!function(){try{var t=&quot;currentScript&quot;in document?document.currentScript:function(){for(var t=document.getElementsByTagName(&quot;script&quot;),e=t.length;e--;)if(t[e].getAttribute(&quot;cf-hash&quot;))return t[e]}();if(t&amp;&amp;t.previousSibling){var e,r,n,i,c=t.previousSibling,a=c.getAttribute(&quot;data-cfemail&quot;);if(a){for(e=&quot;&quot;,r=parseInt(a.substr(0,2),16),n=2;a.length-n;n+=2)i=parseInt(a.substr(n,2),16)^r,e+=String.fromCharCode(i);e=document.createTextNode(e),c.parentNode.replaceChild(e,c)}}}catch(u){}}();/* ]]&gt; */&lt;/script&gt;\nFormat settings, CABAC : Yes\nFormat settings, ReFrames : 5 frames\nCodec ID : V_MPEG4/ISO/AVC\nDuration : 1h 42mn\nBit rate : 2 193 Kbps\nWidth : 1 920 pixels\nHeight : 800 pixels\nDisplay aspect ratio : 2.40:1\nFrame rate mode : Constant\nFrame rate : 23.976 fps\nColor space : YUV\nChroma subsampling : 4:2:0\nBit depth : 8 bits\nScan type : Progressive\nBits/(Pixel*Frame) : 0.060\nStream size : 1.53 GiB (69%)\nTitle : ~SaNRiM~\nWriting library : x264 core 132 r2 76a5c3a\nLanguage : English\nDefault : Yes\nForced : No\nColor primaries : BT.709\nMatrix coefficients : BT.709\n\n\nAudio #1\n\nID : 2\nFormat : AC-3\nFormat/Info : Audio Coding 3\nMode extension : CM (complete main)\nFormat settings, Endianness : Big\nCodec ID : A_AC3\nDuration : 1h 42mn\nBit rate mode : Constant\nBit rate : 448 Kbps\nChannel(s) : 6 channels\nChannel positions : Front: L C R, Side: L R, LFE\nSampling rate : 48.0 KHz\nBit depth : 16 bits\nCompression mode : Lossy\nStream size : 328 MiB (14%)\nTitle : ~SaNRiM~\nLanguage : Hindi\nDefault : Yes\nForced : No\n\n\nAudio #2\n\nID : 3\nFormat : AC-3\nFormat/Info : Audio Coding 3\nMode extension : CM (complete main)\nFormat settings, Endianness : Big\nCodec ID : A_AC3\nDuration : 1h 42mn\nBit rate mode : Constant\nBit rate : 448 Kbps\nChannel(s) : 6 channels\nChannel positions : Front: L C R, Side: L R, LFE\nSampling rate : 48.0 KHz\nBit depth : 16 bits\nCompression mode : Lossy\nStream size : 328 MiB (14%)\nTitle : ~SaNRiM~\nLanguage : English\nDefault : No\nForced : No\n\n\n\n\nScreens\n &lt;a href=&quot;\nhttp://someimage.com/XsnzNYg&quot; rel=&quot;nofollow&quot; target=&quot;_NEW&quot;&gt;\nhttp://someimage.com/XsnzNYg&lt;/a&gt; &lt;a href=&quot;\nhttp://someimage.com/fMGGkRF&quot; rel=&quot;nofollow&quot; target=&quot;_NEW&quot;&gt;\nhttp://someimage.com/fMGGkRF&lt;/a&gt; &lt;a href=&quot;\nhttp://someimage.com/G5WcbnH&quot; rel=&quot;nofollow&quot; target=&quot;_NEW&quot;&gt;\nhttp://someimage.com/G5WcbnH&lt;/a&gt; &lt;a href=&quot;\nhttp://someimage.com/pTV6k8I&quot; rel=&quot;nofollow&quot; target=&quot;_NEW&quot;&gt;\nhttp://someimage.com/pTV6k8I&lt;/a&gt; &lt;a href=&quot;\nhttp://someimage.com/brtWiPt&quot; rel=&quot;nofollow&quot; target=&quot;_NEW&quot;&gt;\nhttp://someimage.com/brtWiPt&lt;/a&gt; &lt;a href=&quot;\nhttp://someimage.com/RXUgBQp&quot; rel=&quot;nofollow&quot; target=&quot;_NEW&quot;&gt;\nhttp://someimage.com/RXUgBQp&lt;/a&gt; &lt;a href=&quot;\nhttp://someimage.com/B1XB4yo&quot; rel=&quot;nofollow&quot; target=&quot;_NEW&quot;&gt;\nhttp://someimage.com/B1XB4yo&lt;/a&gt; &lt;a href=&quot;\nhttp://someimage.com/C6Ly5xk&quot; rel=&quot;nofollow&quot; target=&quot;_NEW&quot;&gt;\nhttp://someimage.com/C6Ly5xk&lt;/a&gt; &lt;a href=&quot;\nhttp://someimage.com/qya3zTz&quot; rel=&quot;nofollow&quot; target=&quot;_NEW&quot;&gt;\nhttp://someimage.com/qya3zTz&lt;/a&gt; &lt;a href=&quot;\nhttp://someimage.com/XzxHbUv&quot; rel=&quot;nofollow&quot; target=&quot;_NEW&quot;&gt;\nhttp://someimage.com/XzxHbUv&lt;/a&gt; &lt;a href=&quot;\nhttp://someimage.com/KC9Qy0u&quot; rel=&quot;nofollow&quot; target=&quot;_NEW&quot;&gt;\nhttp://someimage.com/KC9Qy0u&lt;/a&gt; &lt;a href=&quot;\nhttp://someimage.com/FsIVP0Y&quot; rel=&quot;nofollow&quot; target=&quot;_NEW&quot;&gt;\nhttp://someimage.com/FsIVP0Y&lt;/a&gt; &lt;a href=&quot;\nhttp://someimage.com/dPvmntq&quot; rel=&quot;nofollow&quot; target=&quot;_NEW&quot;&gt;\nhttp://someimage.com/dPvmntq&lt;/a&gt; &lt;a href=&quot;\nhttp://someimage.com/CnsxfZn&quot; rel=&quot;nofollow&quot; target=&quot;_NEW&quot;&gt;\nhttp://someimage.com/CnsxfZn&lt;/a&gt; &lt;a href=&quot;\nhttp://someimage.com/cFw6oMu&quot; rel=&quot;nofollow&quot; target=&quot;_NEW&quot;&gt;\nhttp://someimage.com/cFw6oMu&lt;/a&gt;\n\n\n\n                  If you like my work please comment\n                          Any request? Just PM me\n                       Please seed long after download\n                         Thank you &amp; enjoy the best\n                                 ~SaNRiM~","torrent":{"xt":"urn:btih:9026b1d84d6d2f7a3c72a375d40cf482c4e48064","amp;dn":"Epic+%282013%29+1080p+BluRay+%7BDual+Audio%7D+%7B6Ch.%7D+%5BHindi+DD+5.1+Origi","amp;tr":["udp%3A%2F%2Ftracker.openbittorrent.com%3A80","udp%3A%2F%2Fopen.demonii.com%3A1337","udp%3A%2F%2Ftracker.coppersurfer.tk%3A6969","udp%3A%2F%2Fexodus.desync.com%3A6969"],"infoHash":"9026b1d84d6d2f7a3c72a375d40cf482c4e48064","infoHashBuffer":{"type":"Buffer","data":[144,38,177,216,77,109,47,122,60,114,163,117,212,12,244,130,196,228,128,100]},"announce":[],"urlList":[]}}